<svg width="238" height="34" viewBox="0 0 238 34" fill="none" xmlns="http://www.w3.org/2000/svg">
<path d="M3.39625 2.13202C3.06466 2.19231 2.83607 2.50129 2.87375 2.83539L5.14463 28.197C5.17478 28.4557 5.35816 28.6692 5.60685 28.7396L15.8962 31.6937C16.0142 31.7289 16.1398 31.7289 16.2579 31.6937L26.5472 28.7396C26.7959 28.6692 26.9793 28.4557 27.0094 28.197L29.2803 2.83539C29.2979 2.65452 29.2376 2.47617 29.1145 2.34052C28.9914 2.20738 28.8181 2.13202 28.6372 2.13202H3.51683C3.49674 2.13202 3.47664 2.13202 3.45654 2.13202C3.43645 2.13202 3.41635 2.13202 3.39625 2.13202ZM4.2202 3.41818H27.9339L25.7836 27.6343L16.077 30.3875L6.37051 27.6343L4.2202 3.41818ZM8.0586 7.31687C7.72701 7.37716 7.49842 7.68614 7.5361 8.02024L8.40024 17.5258C8.42034 17.8574 8.69164 18.1187 9.02323 18.1287H19.2925L19.0111 21.0829L16.0971 21.7058L13.143 21.0829L13.0425 20.0379C13.0224 19.6987 12.7385 19.435 12.3994 19.435H9.26438C9.08352 19.435 8.91019 19.5103 8.7871 19.6435C8.664 19.7791 8.60372 19.9575 8.6213 20.1383L8.98303 24.0772C9.00313 24.336 9.17646 24.5595 9.42515 24.6399L15.8158 26.5893L15.8962 26.6094C16.0142 26.6445 16.1398 26.6445 16.2579 26.6094L22.7289 24.6399C22.9852 24.5671 23.1685 24.3435 23.1911 24.0772L24.0352 14.4109C24.0528 14.2325 23.995 14.0567 23.8769 13.9235C23.7589 13.7904 23.5906 13.7125 23.4122 13.7075H12.4597L12.2989 11.718H23.6936C24.0277 11.7205 24.3065 11.4668 24.3366 11.1352L24.618 8.02024C24.6356 7.83938 24.5753 7.66102 24.4522 7.52537C24.3291 7.39223 24.1558 7.31687 23.9749 7.31687H8.17918C8.13899 7.31185 8.0988 7.31185 8.0586 7.31687ZM8.88255 8.60304H23.2715L23.1108 10.4318H11.5956C11.4147 10.4318 11.2414 10.5072 11.1183 10.6403C10.9952 10.776 10.9349 10.9543 10.9525 11.1352L11.2539 14.4109C11.2841 14.7349 11.5529 14.9861 11.8769 14.9937H22.7088L21.9452 23.5346L16.077 25.3031L10.2089 23.5346L9.96775 20.7211H11.8166L11.897 21.6657C11.9171 21.9495 12.1206 22.1856 12.3994 22.2484L15.9766 22.992C16.062 23.0096 16.1524 23.0096 16.2378 22.992L19.7547 22.2484C20.0335 22.1856 20.237 21.9495 20.2571 21.6657L20.6389 17.5258C20.649 17.3475 20.5862 17.1741 20.4656 17.046C20.3425 16.9154 20.1742 16.8425 19.9958 16.8425H9.60602L8.88255 8.60304Z" fill="#A8A8B3"/>
<path fill-rule="evenodd" clip-rule="evenodd" d="M68.4126 28.5999L57.5559 31.7138L46.6991 28.5999L44.3727 2.13202H70.7391C69.9636 10.9536 69.1881 19.7783 68.4126 28.5999ZM69.0457 3.68896H46.066L48.1501 27.3958L57.5559 30.0961L66.9616 27.3958L69.0457 3.68896ZM51.1975 19.2583H54.2995L54.3752 21.2045L57.5559 22.2931L60.7366 21.2045L60.9668 17.7014H54.145L53.9874 14.5875H61.1243L61.3545 11.4736H50.6553L50.422 8.35977H64.614L64.2262 14.5875L63.681 23.5399L57.5559 25.5651L51.4308 23.5399L51.1975 19.2583Z" fill="#A8A8B3"/>
<path d="M85.8289 2.13202C85.7396 2.13202 85.6512 2.15062 85.5695 2.18665C85.4877 2.22268 85.4144 2.27533 85.3541 2.34127C85.2939 2.4072 85.248 2.48497 85.2195 2.56961C85.1909 2.65425 85.1803 2.74391 85.1883 2.83288L87.4517 28.1869C87.4632 28.3164 87.5136 28.4393 87.5963 28.5395C87.6791 28.6397 87.7902 28.7126 87.9151 28.7484L98.2107 31.6887C98.3261 31.7216 98.4483 31.7216 98.5637 31.6887L108.869 28.7484C108.994 28.7126 109.105 28.6397 109.188 28.5395C109.271 28.4393 109.321 28.3164 109.333 28.1869L111.595 2.83288C111.603 2.74391 111.592 2.65425 111.564 2.56961C111.535 2.48497 111.489 2.4072 111.429 2.34127C111.369 2.27533 111.295 2.22268 111.214 2.18665C111.132 2.15062 111.044 2.13202 110.954 2.13202H85.8289ZM86.5323 3.41818H110.251L108.092 27.633L98.3878 30.4025L88.6939 27.633L86.5323 3.41818ZM94.5331 7.27668C94.3626 7.2767 94.199 7.34446 94.0784 7.46505C93.9578 7.58565 93.8901 7.74921 93.89 7.91976V19.8997L90.2036 18.8785C90.1081 18.852 90.0078 18.848 89.9105 18.8666C89.8132 18.8853 89.7215 18.9262 89.6426 18.9861C89.5637 19.0461 89.4997 19.1234 89.4556 19.2122C89.4115 19.3009 89.3885 19.3987 89.3885 19.4978V22.678C89.3886 22.8185 89.4347 22.9551 89.5197 23.0669C89.6048 23.1787 89.7241 23.2596 89.8595 23.2972L96.9334 25.2591C97.0289 25.2856 97.1292 25.2897 97.2265 25.2711C97.3238 25.2524 97.4155 25.2115 97.4944 25.1516C97.5733 25.0916 97.6373 25.0142 97.6814 24.9255C97.7255 24.8367 97.7485 24.739 97.7485 24.6399V7.91976C97.7485 7.74921 97.6808 7.58565 97.5602 7.46505C97.4396 7.34446 97.276 7.2767 97.1055 7.27668H94.5331ZM99.6778 7.27668C99.5072 7.2767 99.3437 7.34446 99.2231 7.46505C99.1025 7.58565 99.0347 7.74921 99.0347 7.91976V18.8522C99.0346 18.9459 99.0551 19.0385 99.0945 19.1236C99.134 19.2086 99.1916 19.2839 99.2633 19.3444C99.335 19.4048 99.419 19.4488 99.5095 19.4734C99.5999 19.4979 99.6947 19.5024 99.7871 19.4865L103.484 18.8497L103.407 19.9889L99.507 21.0615C99.3714 21.0989 99.2518 21.1797 99.1665 21.2915C99.0812 21.4034 99.0349 21.5401 99.0347 21.6807V24.6399C99.0346 24.739 99.0575 24.8367 99.1014 24.9255C99.1453 25.0143 99.2091 25.0917 99.2879 25.1518C99.3667 25.2118 99.4583 25.2529 99.5555 25.2717C99.6528 25.2906 99.7531 25.2867 99.8486 25.2604L106.279 23.4919C106.406 23.457 106.519 23.3841 106.603 23.283C106.687 23.182 106.738 23.0576 106.749 22.9267L107.427 15.0489C107.436 14.9525 107.422 14.8555 107.388 14.7651C107.353 14.6746 107.299 14.5931 107.229 14.5266C107.159 14.4601 107.074 14.4103 106.982 14.3809C106.89 14.3515 106.792 14.3433 106.696 14.3569L102.893 14.8957V11.1352H107.172C107.333 11.1351 107.489 11.0747 107.607 10.9659C107.726 10.8571 107.799 10.7077 107.813 10.5474L108.035 7.97503C108.043 7.88626 108.032 7.79687 108.003 7.71253C107.975 7.62819 107.929 7.55074 107.869 7.48508C107.808 7.41943 107.735 7.367 107.654 7.33112C107.572 7.29525 107.484 7.27671 107.395 7.27668H99.6778ZM95.1762 8.56285H96.4624V23.7946L90.6746 22.1894V20.3431L94.361 21.3655C94.4565 21.392 94.5568 21.396 94.6542 21.3774C94.7515 21.3587 94.8432 21.3178 94.9221 21.2579C95.001 21.1979 95.065 21.1206 95.1091 21.0318C95.1532 20.9431 95.1761 20.8453 95.1762 20.7462V8.56285ZM100.321 8.56285H106.694L106.582 9.84901H102.25C102.08 9.84903 101.916 9.91679 101.795 10.0374C101.675 10.158 101.607 10.3215 101.607 10.4921V15.6368C101.607 15.7289 101.627 15.8199 101.665 15.9037C101.703 15.9875 101.759 16.0621 101.829 16.1225C101.898 16.1828 101.98 16.2276 102.068 16.2536C102.156 16.2797 102.249 16.2865 102.341 16.2736L106.077 15.7435L105.506 22.3703L100.321 23.7959V22.1718L104.189 21.108C104.318 21.0726 104.432 20.9981 104.517 20.8948C104.601 20.7915 104.651 20.6645 104.66 20.5315L104.821 18.1199C104.828 18.0228 104.812 17.9254 104.776 17.8351C104.739 17.7449 104.682 17.6641 104.61 17.599C104.538 17.5338 104.452 17.4858 104.358 17.4588C104.264 17.4318 104.166 17.4263 104.07 17.4429L100.321 18.0885V8.56285Z" fill="#A8A8B3"/>
<path d="M186.222 3.56228C185.72 3.54542 185.195 3.63284 184.669 3.80344C183.617 4.14464 182.514 4.80955 181.382 5.73017C180.939 6.09097 180.491 6.50339 180.042 6.94098C179.603 6.5145 179.164 6.11189 178.731 5.75906C177.6 4.83917 176.5 4.17526 175.45 3.83484C174.4 3.49441 173.355 3.48386 172.497 3.97928C171.639 4.4747 171.126 5.38412 170.896 6.46369C170.665 7.54326 170.689 8.82888 170.921 10.2682C171.001 10.7681 171.117 11.2926 171.247 11.8269C170.757 11.9755 170.281 12.1317 169.839 12.3042C168.507 12.8246 167.404 13.4473 166.601 14.1882C165.798 14.9291 165.28 15.8284 165.28 16.8158C165.28 17.8032 165.798 18.7012 166.601 19.4422C167.404 20.1831 168.507 20.807 169.839 21.3274C170.311 21.5118 170.823 21.6779 171.35 21.8349C171.16 22.5441 171.007 23.2323 170.902 23.8847C170.67 25.3252 170.646 26.6109 170.877 27.693C171.107 28.775 171.621 29.6895 172.483 30.1874C173.346 30.6853 174.395 30.6731 175.447 30.3319C176.5 29.9907 177.601 29.327 178.733 28.4064C179.173 28.0489 179.617 27.6411 180.062 27.2081C180.509 27.6435 180.956 28.0536 181.397 28.4127C182.528 29.3325 183.629 29.9965 184.679 30.3369C185.729 30.6773 186.773 30.6879 187.631 30.1924C188.489 29.697 189.002 28.7876 189.232 27.708C189.462 26.6285 189.437 25.3428 189.206 23.9035C189.101 23.2494 188.947 22.5601 188.756 21.8487C189.301 21.6879 189.829 21.5174 190.315 21.3274C191.647 20.807 192.75 20.1831 193.553 19.4422C194.356 18.7012 194.874 17.8032 194.874 16.8158C194.874 15.8284 194.356 14.9291 193.553 14.1882C192.75 13.4473 191.647 12.8246 190.315 12.3042C189.867 12.1293 189.384 11.971 188.886 11.8206C189.017 11.283 189.134 10.7548 189.215 10.2518C189.446 8.8114 189.47 7.52436 189.24 6.44234C189.009 5.36032 188.494 4.447 187.632 3.94914C187.201 3.7002 186.723 3.57914 186.222 3.56228ZM186.163 4.87106C186.477 4.87966 186.746 4.95453 186.975 5.08709C187.434 5.35221 187.774 5.86819 187.955 6.71741C188.136 7.56662 188.13 8.71399 187.916 10.0446C187.843 10.5002 187.736 10.983 187.616 11.4777C186.301 11.1612 184.86 10.9263 183.324 10.7882C182.552 9.71921 181.759 8.74681 180.96 7.88299C181.383 7.47048 181.803 7.08467 182.212 6.75132C183.258 5.90089 184.248 5.32222 185.074 5.05443C185.487 4.92054 185.848 4.86245 186.163 4.87106ZM173.959 4.87482C174.275 4.86599 174.638 4.92392 175.052 5.0582C175.88 5.32676 176.872 5.90518 177.918 6.75634C178.319 7.08293 178.73 7.46033 179.144 7.8629C178.339 8.73357 177.54 9.71615 176.764 10.7945C175.233 10.9351 173.798 11.1723 172.488 11.4903C172.368 10.9979 172.263 10.517 172.191 10.0634C171.977 8.73167 171.971 7.58288 172.153 6.73122C172.334 5.87956 172.677 5.36094 173.14 5.09337C173.372 4.95959 173.643 4.88366 173.959 4.87482ZM180.062 8.80868C180.586 9.37871 181.11 10.0027 181.63 10.6739C181.119 10.6526 180.602 10.64 180.077 10.64C179.542 10.64 179.015 10.653 178.495 10.6751C179.014 10.0034 179.538 9.3792 180.062 8.80868ZM180.077 11.9387C180.952 11.9387 181.804 11.9746 182.633 12.0354C183.204 12.8548 183.761 13.7241 184.292 14.6442C184.759 15.4526 185.181 16.2598 185.566 17.057C185.177 17.8647 184.748 18.6828 184.275 19.5024C183.858 20.2239 183.423 20.9092 182.981 21.5699C182.044 21.6481 181.074 21.6917 180.077 21.6917C179.056 21.6917 178.064 21.6455 177.107 21.5636C176.672 20.9124 176.244 20.2363 175.834 19.5263C175.362 18.7086 174.935 17.8932 174.547 17.0871C174.936 16.2765 175.366 15.4553 175.841 14.6329C176.369 13.7176 176.925 12.8533 177.492 12.0379C178.33 11.9758 179.192 11.9387 180.077 11.9387ZM184.29 12.1962C185.349 12.3284 186.344 12.5122 187.27 12.7325C186.995 13.6335 186.657 14.5747 186.247 15.546C185.98 15.0325 185.704 14.5173 185.406 14.0011C185.045 13.3758 184.67 12.7787 184.29 12.1962ZM175.797 12.2062C175.424 12.7781 175.058 13.363 174.704 13.976C174.402 14.4988 174.12 15.021 173.851 15.541C173.444 14.5755 173.108 13.6397 172.835 12.7438C173.754 12.523 174.744 12.34 175.797 12.2062ZM188.543 13.0741C188.999 13.2121 189.439 13.356 189.843 13.5137C191.071 13.9935 192.043 14.5616 192.672 15.1428C193.302 15.7239 193.576 16.2782 193.576 16.8158C193.576 17.3535 193.302 17.9077 192.672 18.4888C192.043 19.07 191.071 19.6381 189.843 20.1179C189.394 20.2932 188.901 20.4521 188.388 20.6027C188.023 19.4717 187.556 18.2917 187 17.0871C187.639 15.7041 188.155 14.3557 188.543 13.0741ZM171.59 13.0804C171.973 14.3492 172.483 15.6843 173.112 17.0532C172.553 18.2648 172.084 19.4515 171.717 20.5889C171.222 20.4423 170.746 20.2876 170.312 20.1179C169.083 19.6381 168.111 19.07 167.482 18.4888C166.852 17.9077 166.579 17.3535 166.579 16.8158C166.579 16.2782 166.852 15.7239 167.482 15.1428C168.111 14.5616 169.083 13.9935 170.312 13.5137C170.709 13.3584 171.142 13.2165 171.59 13.0804ZM180.077 13.8617C178.309 13.8617 176.862 15.3089 176.862 17.0771C176.862 18.8453 178.309 20.2925 180.077 20.2925C181.845 20.2925 183.293 18.8453 183.293 17.0771C183.293 15.3089 181.845 13.8617 180.077 13.8617ZM180.077 15.1478C181.15 15.1478 182.006 16.004 182.006 17.0771C182.006 18.1502 181.15 19.0063 180.077 19.0063C179.004 19.0063 178.148 18.1502 178.148 17.0771C178.148 16.004 179.004 15.1478 180.077 15.1478ZM186.263 18.5969C186.6 19.3951 186.893 20.1761 187.14 20.9293C186.366 21.1086 185.543 21.2597 184.677 21.3789C184.926 20.9811 185.172 20.5758 185.413 20.1593C185.714 19.6373 185.994 19.1159 186.263 18.5969ZM173.866 18.5981C174.136 19.1204 174.418 19.6441 174.721 20.1694C174.959 20.5806 175.201 20.9821 175.447 21.3752C174.584 21.2554 173.763 21.1038 172.992 20.9243C173.237 20.1734 173.53 19.394 173.866 18.5981ZM172.621 22.1727C173.785 22.4485 175.047 22.6603 176.384 22.7982C177.278 24.09 178.207 25.2502 179.144 26.2649C178.725 26.6731 178.31 27.0562 177.904 27.3865C176.859 28.2369 175.868 28.8143 175.042 29.0821C174.216 29.3499 173.599 29.3146 173.14 29.0495C172.681 28.7843 172.343 28.2684 172.162 27.4191C171.981 26.5699 171.986 25.4238 172.199 24.0932C172.296 23.4896 172.441 22.8432 172.621 22.1727ZM187.511 22.1778C187.693 22.8519 187.839 23.5013 187.936 24.1083C188.15 25.44 188.155 26.5876 187.974 27.4392C187.792 28.2909 187.451 28.8108 186.988 29.0783C186.524 29.3459 185.903 29.3821 185.075 29.1135C184.246 28.845 183.255 28.2653 182.209 27.4141C181.8 27.0814 181.382 26.6965 180.96 26.285C181.903 25.2665 182.839 24.1 183.738 22.8008C185.079 22.6637 186.344 22.4532 187.511 22.1778ZM178.062 22.9301C178.723 22.9661 179.392 22.9904 180.077 22.9904C180.74 22.9904 181.387 22.9676 182.026 22.9339C181.373 23.8157 180.707 24.6173 180.043 25.3392C179.38 24.6158 178.715 23.8127 178.062 22.9301Z" fill="#A8A8B3"/>
<path d="M206.99 2.28616C206.804 2.28618 206.625 2.36039 206.492 2.49248C206.36 2.62456 206.286 2.8037 206.286 2.99049V31.1636C206.286 31.3504 206.36 31.5296 206.492 31.6617C206.625 31.7937 206.804 31.8679 206.99 31.868H235.164C235.35 31.8679 235.53 31.7937 235.662 31.6617C235.794 31.5296 235.868 31.3504 235.868 31.1636V2.99049C235.868 2.8037 235.794 2.62456 235.662 2.49248C235.53 2.36039 235.35 2.28618 235.164 2.28616H206.99ZM207.695 3.69482H234.459V30.4593H207.695V3.69482ZM214.034 15.6684V18.095H217.555V29.0507H220.373V18.095H223.894V15.6684H214.034ZM229.312 15.6753C227.118 15.6666 224.611 16.3313 224.611 19.4184C224.611 23.4542 230.049 23.4552 230.049 25.2759C230.049 25.4484 230.122 26.7024 228.203 26.7024C226.284 26.7024 224.684 25.496 224.684 25.496V28.4247C224.684 28.4247 233.052 31.1313 233.052 25.0283C233.051 21.0664 227.563 21.2646 227.563 19.296C227.563 18.5332 228.105 17.8199 229.606 17.8199C231.107 17.8199 232.436 18.7058 232.436 18.7058L232.535 16.0962C232.535 16.0962 231.018 15.6821 229.312 15.6753Z" fill="#A8A8B3"/>
<g clip-path="url(#clip0_331_181)">
<path d="M137.694 4.73116C136.261 4.73116 134.749 4.99931 133.319 5.50728C131.608 6.11555 128.371 7.47752 125.927 9.76338C123.446 12.0846 122.834 14.3177 123.088 15.6345C123.564 18.1024 125.937 19.7918 127.74 21.0347C126.423 21.841 124.992 22.9516 124.419 24.2183C123.878 25.413 123.849 26.6435 124.335 27.6832C124.698 28.4593 125.317 29.0352 125.991 29.2229C126.458 29.3528 126.941 29.4188 127.426 29.4188C129.34 29.4188 131.23 28.3738 132.357 26.6924C132.527 26.4403 132.672 26.1781 132.797 25.91C132.866 25.9916 132.937 26.0691 133.01 26.1385C133.626 26.7217 134.359 26.7213 134.6 26.7213C135.344 26.7213 135.867 26.3991 136.244 25.9991C136.559 26.2088 136.93 26.3206 137.329 26.3206C137.378 26.3206 137.427 26.3201 137.475 26.3144C138.274 26.2166 139.137 25.4365 139.137 25.4365C139.17 25.4654 139.203 25.4924 139.24 25.5194C139.579 25.7753 140.006 25.8999 140.544 25.8999C140.634 25.8999 140.726 25.8976 140.819 25.8911C141.477 25.8468 141.973 25.6895 142.285 25.5583C142.599 25.4439 143.053 25.2415 143.507 24.9078C143.617 24.8268 143.722 24.7416 143.82 24.6516C144.02 24.7731 144.245 24.8608 144.49 24.9103C144.61 24.9347 144.735 24.9467 144.863 24.9467C145.201 24.9467 145.568 24.8641 145.981 24.6943C146.317 24.5786 146.801 24.3711 147.285 24.0161C148.405 23.1925 148.95 22.2135 148.903 21.1088C148.902 21.0747 148.9 21.0406 148.897 21.0058C149.062 20.9878 149.233 20.9795 149.409 20.9795C149.627 20.9795 149.857 20.9939 150.091 21.0209C151.625 21.2003 151.955 21.9239 151.949 22.1637C151.939 22.2268 151.83 22.328 151.728 22.3911C151.079 22.7923 150.809 23.3132 150.924 23.9395C151.047 24.6172 151.616 25.0924 152.308 25.0924C152.44 25.0924 152.555 25.0758 152.651 25.0598C153.473 24.9209 155.04 23.9003 155.112 22.0658C155.155 21.001 154.719 19.9115 153.917 19.0768C152.909 18.0287 151.432 17.4518 149.756 17.4518H149.717C149.025 17.4556 148.353 17.5504 147.708 17.7343L147.688 17.5886C147.648 17.3128 147.634 17.2093 147.665 16.9695C147.693 16.7541 147.825 16.3648 147.889 16.1771C147.978 15.9147 148.043 15.7252 148.02 15.4449C147.977 14.8977 147.522 13.9682 146.096 13.958H146.091H146.056C144.79 13.958 144.007 14.3259 143.73 15.0518C143.696 15.1425 143.655 15.2621 143.612 15.3997C143.317 15.0885 142.841 14.8435 142.113 14.8383H142.108H142.071C141.92 14.8383 141.776 14.8444 141.639 14.8546C143.467 13.1616 144.632 10.7304 144.038 8.40078C143.461 6.13742 141.03 4.73116 137.694 4.73116ZM137.692 6.01088C140.258 6.01088 142.354 6.97019 142.8 8.71851C143.452 11.2751 141.231 14.3328 138.389 15.4323C136.912 16.004 135.584 16.1896 134.561 16.1896C133.828 16.1896 133.251 16.0932 132.891 15.9749C131.911 15.6534 131.336 15.0082 131.196 14.6437C131.141 14.5009 131.046 14.2607 131.196 14.1777C131.221 14.1636 131.244 14.1539 131.266 14.1539C131.325 14.1539 131.394 14.2146 131.571 14.4101C131.776 14.6364 132.525 15.1962 133.91 15.1962C134.104 15.1962 134.313 15.1861 134.534 15.1611C139.224 14.6351 142.05 10.9899 141.157 9.02871C140.829 8.30855 139.679 7.79671 138.006 7.79671C136.491 7.79671 134.546 8.21807 132.399 9.28867C126.884 12.0362 126.586 14.3007 126.539 15.1611C126.41 17.5273 129.459 18.7731 131.109 20.5336C131.131 20.5568 131.152 20.5796 131.173 20.6027C131.482 20.4323 131.808 20.2533 132.128 20.0778C132.96 19.6206 133.743 19.192 134.109 18.9927C134.69 18.1491 135.87 17.2182 136.72 17.2182C138.081 17.2182 137.612 19.1723 137.612 19.1723C137.612 19.1723 137.64 19.0812 137.677 19.0806C137.707 19.08 137.802 18.9286 138.036 18.9286C138.106 18.9286 138.188 18.9423 138.285 18.9776C138.717 19.1358 138.619 19.4391 138.622 19.4699C138.627 19.5297 138.112 21.2673 137.897 22.381C137.795 22.9121 137.854 23.299 137.884 23.299C137.927 23.299 138.013 23.163 138.093 23.0177L138.092 23.014C138.092 23.014 138.151 22.9049 138.252 22.7075C138.265 22.6812 138.272 22.6648 138.272 22.6648L138.274 22.6661C138.392 22.4333 138.559 22.0927 138.751 21.6689C139.128 20.8369 140.569 17.6265 140.691 17.2709C140.813 16.9153 140.878 16.5474 140.937 16.3906C140.997 16.2362 141.488 16.1193 142.07 16.1193H142.102C142.697 16.1238 142.756 16.3768 142.761 16.4295C142.765 16.4822 142.477 17.1864 142.412 17.6841C142.346 18.1818 142.409 18.4316 142.463 18.8495C142.499 19.1234 142.67 19.4701 142.871 19.863C143.487 18.8561 144.571 16.93 144.676 16.3906C144.747 16.0221 144.862 15.6683 144.922 15.5115C144.981 15.3571 145.474 15.2389 146.055 15.2389H146.085C146.681 15.2434 146.741 15.4977 146.746 15.5504C146.75 15.6031 146.462 16.3073 146.397 16.805C146.331 17.3027 146.394 17.5512 146.448 17.9692C146.494 18.3267 146.772 18.8091 147.046 19.3556C147.795 18.9866 148.689 18.7379 149.721 18.7327H149.754C152.402 18.7327 153.896 20.4524 153.834 22.0181C153.788 23.2539 152.651 23.7641 152.44 23.8001C152.388 23.8091 152.344 23.8152 152.308 23.8152C152.237 23.8152 152.196 23.7894 152.181 23.7097C152.166 23.6268 152.221 23.5886 152.401 23.4774C152.581 23.3661 153.119 22.997 153.215 22.3257C153.311 21.6545 152.807 20.0515 150.24 19.7512C149.948 19.7172 149.672 19.7023 149.409 19.7023C148.597 19.7023 147.926 19.8539 147.377 20.0828C147.513 20.4319 147.612 20.7951 147.627 21.1616C147.661 21.9666 147.105 22.5613 146.527 22.9863C146.191 23.2339 145.83 23.3991 145.53 23.4987C145.329 23.5836 145.074 23.6695 144.863 23.6695C144.821 23.6695 144.781 23.6659 144.743 23.6582C144.242 23.5573 143.975 23.1129 144.316 22.1323C144.5 21.6019 145.031 20.7936 145.887 20.0979C145.691 19.696 145.474 19.2866 145.363 18.9111C145.145 18.1697 145.078 17.7218 145.078 17.7218C145.078 17.7218 144.371 19.1844 143.46 20.5161C143.408 20.5932 143.356 20.6681 143.303 20.7434C143.482 21.1581 143.624 21.5983 143.643 22.0419C143.676 22.8463 143.327 23.4542 142.75 23.8792C142.436 24.1094 142.103 24.2687 141.817 24.3703C141.633 24.45 141.261 24.5804 140.731 24.6164C140.668 24.6209 140.605 24.624 140.543 24.624C140.325 24.624 140.129 24.5928 140.007 24.5009C139.793 24.3401 139.767 24.1393 139.877 23.8667C139.971 23.6352 140.672 22.8339 141.261 22.1323C141.423 21.9388 141.579 21.7417 141.717 21.5584C141.715 21.5539 141.715 21.5509 141.715 21.5509C141.715 21.5509 141.821 21.4134 141.995 21.1729C141.78 20.7106 141.507 20.2274 141.378 19.7914C141.16 19.05 141.094 18.6009 141.094 18.6009C141.094 18.6009 140.378 20.4359 139.633 21.9C139.055 23.0336 138.67 23.7208 138.496 24.0224C138.495 24.0301 138.494 24.0337 138.494 24.0337C138.494 24.0337 138.468 24.0779 138.423 24.1467C138.401 24.184 138.391 24.2033 138.391 24.2033C138.391 24.2033 138.39 24.2008 138.389 24.1982C138.196 24.4837 137.761 25.0434 137.329 25.0434C136.144 25.0434 136.58 22.6372 136.58 22.6372C136.58 22.6372 136.233 23.5285 135.842 24.2937C135.524 24.9174 135.234 25.4453 134.6 25.4453C134.417 25.4453 134.129 25.4393 133.888 25.2117C133.344 24.6947 132.928 23.3819 133.009 22.3659C133.079 21.5011 133.212 20.9026 133.393 20.403C133.067 20.5805 132.692 20.7902 132.31 21.0146C132.114 21.1297 131.916 21.2468 131.722 21.3612C131.728 21.3728 131.735 21.3848 131.741 21.3964C132.228 22.3378 132.357 24.3985 131.295 25.9816C130.434 27.2656 128.973 28.1429 127.424 28.1429C127.063 28.1429 126.697 28.095 126.333 27.9934C125.712 27.8205 124.772 26.5359 125.582 24.7458C126.296 23.1679 129.149 21.6739 129.901 21.3022C129.964 21.2675 130.034 21.2297 130.108 21.1892C128.609 19.8781 124.865 18.1101 124.34 15.3934C124.192 14.6289 124.55 12.7985 126.798 10.6965C128.687 8.92888 131.317 7.57581 133.745 6.7129C135.082 6.23772 136.442 6.01088 137.692 6.01088ZM138.009 9.07141C139.378 9.07141 139.937 9.46909 140.002 9.56747C140.092 9.7668 140.071 10.2118 139.724 10.8246C138.98 12.1363 137.043 13.5931 134.393 13.8901C134.228 13.9088 134.066 13.9178 133.912 13.9178C132.921 13.9178 132.509 13.5398 132.506 13.536C132.275 13.2814 131.906 12.8748 131.269 12.8741C131.031 12.8741 130.799 12.9366 130.579 13.0588C130.392 13.1623 129.485 13.7468 130.003 15.0933C130.284 15.8237 131.161 16.7508 132.494 17.188C132.851 17.3051 133.287 17.3867 133.766 17.4304C133.572 17.6233 133.4 17.8179 133.254 18.0031C132.839 18.2294 132.193 18.5833 131.515 18.9563L131.387 19.0253C130.972 18.6601 130.53 18.3211 130.097 17.988C128.687 16.9039 127.767 16.1259 127.816 15.2289C127.92 13.3333 130.676 11.5722 132.97 10.429C134.727 9.55387 136.516 9.07141 138.009 9.07141ZM139.645 16.2637C139.634 16.3055 139.625 16.3487 139.614 16.3931C139.577 16.541 139.536 16.7074 139.486 16.8527C139.443 16.9685 139.265 17.3802 139.03 17.9152C138.994 17.8946 138.957 17.8754 138.919 17.8574C138.855 17.4832 138.72 17.0985 138.466 16.7648C138.593 16.7198 138.721 16.6718 138.851 16.6216C139.119 16.5181 139.384 16.3987 139.645 16.2637ZM136.691 18.3723C136.47 18.3723 136.111 18.5651 135.777 18.9387C135.489 19.2615 134.998 20.0928 134.769 20.7886C134.312 22.171 134.509 23.5758 134.833 23.6607C134.842 23.6633 134.853 23.6645 134.863 23.6645C135.242 23.6645 135.838 21.8926 136.126 21.1892C136.312 20.7365 137.034 18.7283 136.876 18.4602C136.841 18.4017 136.777 18.3723 136.691 18.3723ZM146.296 20.6492C145.816 21.0729 145.54 21.5171 145.42 21.7807C145.112 22.452 145.097 22.667 145.19 22.7339C145.638 22.5732 146.378 22.1849 146.384 21.1465C146.385 20.9909 146.352 20.8234 146.296 20.6492ZM130.811 21.7933C130.765 21.8203 130.722 21.8467 130.68 21.8724V21.8736C130.68 21.8736 130.66 21.8851 130.623 21.9063C130.402 22.0387 130.219 22.1482 130.096 22.2228C129.551 22.5629 128.73 23.1161 128.094 23.716C127.05 24.7004 126.831 26.067 127.382 26.3859C127.499 26.4541 127.654 26.4877 127.833 26.4877C128.424 26.4877 129.276 26.1157 129.93 25.4026C130.822 24.4285 131.191 23.1944 130.811 21.7933ZM142.398 21.954C142.213 22.1971 142.042 22.4131 141.896 22.5958C141.644 22.9095 141.003 23.5979 141.003 23.5979C141.003 23.5979 140.912 23.684 140.951 23.7072C140.964 23.7149 140.98 23.7185 140.999 23.7185C141.06 23.7185 141.15 23.682 141.246 23.6318C141.602 23.4081 142.399 22.8512 142.4 22.0256C142.4 22.0018 142.4 21.9784 142.398 21.954Z" fill="#A8A8B3"/>
</g>
<defs>
<clipPath id="clip0_331_181">
<rect width="32.15" height="32.15" fill="white" transform="translate(123 1)"/>
</clipPath>
</defs>
</svg>
