<svg width="128" height="22" viewBox="0 0 128 22" fill="none" xmlns="http://www.w3.org/2000/svg">
<path d="M10.8523 0.64769L13.0038 2.79921L4.80304 11L13.0038 19.2008L10.8523 21.3523L0.5 11L10.8523 0.64769Z" fill="#FF1E8A"/>
<path fill-rule="evenodd" clip-rule="evenodd" d="M21.5383 0.64769L19.3867 2.79921L22.9493 6.36173L18.311 11L22.9493 15.6383L19.3867 19.2008L21.5383 21.3523L31.8906 11L21.5383 0.64769ZM25.1008 8.51325L22.614 11L25.1008 13.4868L27.5875 11L25.1008 8.51325Z" fill="#FF1E8A"/>
<path d="M44.2664 8.08641H46.7163L48.8857 9.33942V16.3712L46.7163 17.6242H44.2664L42.9386 16.8574L41.6108 17.6242H40.3765V3.87857H42.9386V8.85318L44.2664 8.08641ZM42.9386 10.2745V15.4361H46.3236V10.2745H42.9386Z" fill="#A8A8B3"/>
<path d="M57.4784 10.368H54.2618V17.5307H51.6997V8.17992H53.8129L54.2618 8.94668L55.5896 8.17992H57.4784V10.368Z" fill="#A8A8B3"/>
<path d="M67.1131 15.3426V17.5307H61.5213L59.3519 16.2777V9.33942L61.5213 8.08641H64.9437L67.1131 9.33942V13.8091H61.9141V15.3426H67.1131ZM61.9141 10.2745V11.8828H64.551V10.2745H61.9141Z" fill="#A8A8B3"/>
<path d="M78.2485 9.33942V17.5307H75.6864V10.2745H72.4885V17.5307H69.9263V8.08641H72.0396L72.4885 8.85318L73.8163 8.08641H76.0791L78.2485 9.33942Z" fill="#A8A8B3"/>
<path d="M89.3708 16.3712L87.2014 17.6242H83.218L81.0486 16.3712V9.33942L83.218 8.08641H87.2014L89.3708 9.33942V16.3712ZM83.6107 10.2745V15.4361H86.8087V10.2745H83.6107Z" fill="#A8A8B3"/>
<path d="M99.1983 8.08641H101.648L102.976 8.85318V3.87857H105.538V17.6242H103.425L102.976 16.8574L101.648 17.6242H99.1983L97.0289 16.3712V9.33942L99.1983 8.08641ZM102.976 15.4361V10.2745H99.5911V15.4361H102.976Z" fill="#A8A8B3"/>
<path d="M116.113 15.3426V17.5307H110.522L108.352 16.2777V9.33942L110.522 8.08641H113.944L116.113 9.33942V13.8091H110.914V15.3426H116.113ZM110.914 10.2745V11.8828H113.551V10.2745H110.914Z" fill="#A8A8B3"/>
<path d="M120.367 8.17992L122.517 14.314H122.555L124.724 8.17992H127.286L123.826 17.5307H121.264L117.804 8.17992H120.367Z" fill="#A8A8B3"/>
</svg>
